<?xml version="1.0" standalone="no"?>
<!DOCTYPE svg PUBLIC "-//W3C//DTD SVG 20010904//EN"
 "http://www.w3.org/TR/2001/REC-SVG-20010904/DTD/svg10.dtd">
<svg version="1.0" xmlns="http://www.w3.org/2000/svg"
 width="960.000000pt" height="480.000000pt" viewBox="0 0 960.000000 480.000000"
 preserveAspectRatio="xMidYMid meet">
<metadata>
Created by potrace 1.15, written by Peter Selinger 2001-2017
</metadata>
<g transform="translate(0.000000,480.000000) scale(0.100000,-0.100000)"
fill="#000000" stroke="none">
<path d="M1995 3340 c-369 -21 -641 -38 -605 -38 36 -1 346 14 690 32 l625 34
20 -21 20 -21 -20 16 c-18 14 -98 11 -944 -33 l-923 -49 -87 -76 -86 -77 85
81 c78 75 88 81 130 83 l45 2 -42 4 -43 4 -257 -227 c-447 -395 -603 -537
-603 -550 0 -5 33 23 72 61 40 39 93 88 118 110 25 22 -7 -11 -72 -73 l-118
-114 0 -148 c0 -169 17 -439 30 -489 6 -22 6 -31 0 -25 -6 6 -14 37 -19 70 -8
55 -9 56 -10 16 -1 -54 19 -102 54 -130 30 -24 102 -29 180 -13 27 6 8 7 -55
4 -88 -5 -97 -4 -120 17 l-25 22 25 -16 c26 -17 72 -20 156 -10 l51 6 18 80
c10 43 22 81 26 83 4 3 -2 -29 -13 -71 -10 -42 -17 -81 -15 -88 2 -6 12 25 21
69 10 44 26 100 37 124 22 51 23 54 7 45 -8 -4 -10 -3 -5 2 5 5 12 9 15 9 4 0
34 29 66 63 40 41 82 73 125 95 64 31 68 32 206 32 135 0 142 -1 200 -29 34
-17 84 -54 115 -85 30 -31 50 -49 45 -41 -8 13 -7 13 8 1 19 -15 23 -26 6 -15
-7 4 -10 1 -7 -7 3 -8 10 -14 15 -14 6 0 15 -4 20 -9 5 -5 3 -6 -4 -2 -18 10
-17 6 12 -56 14 -29 25 -63 25 -76 0 -13 11 -34 25 -47 20 -21 33 -25 77 -24
l53 2 -57 6 c-31 3 -63 12 -70 20 -11 11 -9 11 12 1 38 -20 404 -7 1410 49
492 28 896 51 896 51 1 0 10 35 19 78 9 42 20 81 25 85 4 5 -1 -27 -11 -70
-10 -43 -17 -82 -15 -88 1 -5 13 32 24 83 12 51 29 106 37 122 18 35 19 43 3
34 -8 -4 -10 -3 -5 2 5 5 12 9 15 9 4 0 34 29 66 63 73 77 155 120 252 132
l69 9 -66 -3 c-92 -5 -164 -40 -252 -123 l-72 -67 65 67 c82 85 154 123 267
138 153 20 269 -14 373 -111 30 -28 49 -49 43 -45 -7 3 -13 2 -13 -3 0 -11 21
-30 33 -30 5 0 12 -4 15 -8 4 -4 1 -4 -7 1 -9 5 -12 3 -9 -6 3 -8 10 -14 15
-14 6 0 15 -4 20 -9 5 -5 2 -6 -6 -1 -9 5 -12 3 -9 -6 3 -8 10 -14 15 -14 6 0
15 -4 20 -9 5 -5 3 -6 -4 -2 -16 9 -16 6 2 -37 8 -20 15 -48 15 -62 0 -16 12
-38 29 -56 28 -27 35 -29 108 -29 92 0 137 11 170 42 22 21 32 45 14 34 -5 -4
-5 10 -1 31 10 42 -6 381 -20 432 -6 23 -6 31 1 24 13 -13 29 -158 29 -265 0
-52 4 -88 10 -88 6 0 10 36 10 88 0 107 16 252 29 265 7 7 7 -1 1 -24 -14 -51
-30 -390 -20 -432 4 -21 4 -35 -1 -31 -18 11 -8 -13 14 -34 33 -31 78 -42 170
-42 73 0 80 2 108 29 17 18 29 40 29 56 0 14 7 42 15 62 18 43 18 46 3 37 -8
-4 -10 -3 -5 2 5 5 14 9 19 9 6 0 13 6 16 14 3 9 0 11 -9 6 -8 -5 -11 -4 -6 1
5 5 14 9 19 9 6 0 13 6 16 14 3 9 0 11 -9 6 -8 -5 -11 -4 -6 1 5 5 12 9 15 9
13 0 32 16 32 26 0 6 -6 7 -12 4 -7 -4 12 17 42 45 104 97 220 131 373 111
113 -15 185 -53 267 -138 l65 -67 -72 67 c-88 83 -160 118 -252 123 l-66 3 69
-9 c97 -12 179 -55 252 -132 32 -34 62 -63 66 -63 3 0 10 -4 15 -9 5 -5 3 -6
-4 -2 -17 9 -16 1 2 -34 8 -16 25 -71 37 -122 11 -51 23 -88 24 -83 2 6 -5 45
-15 88 -10 43 -15 75 -11 70 5 -4 16 -43 25 -85 9 -43 18 -78 19 -78 0 0 404
-23 896 -51 1006 -56 1372 -69 1410 -49 21 10 23 10 12 -1 -7 -8 -39 -17 -70
-20 l-57 -6 53 -2 c44 -1 57 3 77 24 14 13 25 34 25 47 0 13 11 47 25 76 29
62 30 66 13 56 -8 -4 -10 -3 -5 2 5 5 14 9 19 9 6 0 13 6 16 14 3 8 0 11 -7 7
-17 -11 -13 0 6 15 15 12 16 12 8 -1 -5 -8 15 10 45 41 31 31 81 68 115 85 58
28 65 29 200 29 138 0 142 -1 206 -32 43 -22 85 -54 125 -95 32 -34 62 -63 66
-63 3 0 10 -4 15 -9 5 -5 3 -6 -4 -2 -17 9 -16 6 6 -45 11 -24 27 -80 37 -124
9 -44 19 -75 21 -69 2 7 -5 46 -15 88 -11 42 -17 74 -13 71 4 -2 16 -40 26
-83 l18 -80 51 -6 c84 -10 130 -7 156 10 l25 16 -25 -22 c-23 -21 -32 -22
-120 -17 -63 3 -82 2 -55 -4 78 -16 150 -11 180 13 35 28 55 76 54 130 -1 40
-2 39 -10 -16 -5 -33 -13 -64 -19 -70 -6 -6 -6 3 0 25 13 50 30 320 30 489 l0
148 -118 114 c-65 62 -97 95 -72 73 25 -22 78 -71 118 -110 39 -38 72 -66 72
-61 0 13 -156 155 -603 550 l-257 227 -43 -4 -42 -4 45 -2 c42 -2 52 -8 130
-83 l85 -81 -86 77 -87 76 -923 49 c-846 44 -926 47 -944 33 l-20 -16 20 21
20 21 625 -34 c344 -18 654 -33 690 -32 36 0 -245 17 -625 38 -638 35 -692 36
-711 21 -11 -9 -163 -144 -338 -301 l-317 -285 -162 -21 c-89 -12 -153 -22
-142 -23 11 -1 83 6 161 15 l141 17 124 109 c68 60 95 82 59 48 -36 -34 -92
-86 -125 -115 l-60 -53 -400 -46 c-562 -65 -851 -103 -915 -120 -43 -11 -51
-12 -37 -1 19 14 129 32 422 70 99 12 168 23 153 24 -15 0 -60 -3 -100 -9 -40
-5 -98 -12 -128 -15 -137 -12 -326 -46 -350 -64 -31 -22 -49 -71 -49 -133 -1
-27 -5 -48 -11 -48 -5 0 -10 21 -11 48 0 62 -18 111 -49 133 -24 18 -213 52
-350 64 -30 3 -88 10 -128 15 -40 6 -85 9 -100 9 -15 -1 54 -12 153 -24 293
-38 403 -56 422 -70 14 -11 6 -10 -37 1 -64 17 -353 55 -915 120 l-400 46 -60
53 c-33 29 -89 81 -125 115 -36 34 -9 12 59 -48 l124 -110 148 -17 c81 -9 153
-15 160 -13 7 2 -59 12 -147 22 l-159 18 -339 304 c-232 208 -346 304 -360
303 -12 -1 -322 -18 -691 -39z m750 -190 c29 -30 53 -41 39 -18 -13 20 337
-286 391 -343 28 -28 44 -49 38 -45 -8 4 -13 1 -13 -8 0 -9 6 -13 14 -10 10 4
14 -1 13 -15 -1 -21 -35 -32 -132 -46 -118 -16 -1150 -64 -1160 -53 -11 10
-25 162 -31 339 l-7 176 24 6 c13 3 152 13 309 22 157 8 305 17 330 18 141 10
155 9 185 -23z m4630 5 c149 -9 283 -18 299 -21 l29 -6 -7 -177 c-6 -177 -20
-329 -31 -339 -10 -11 -1042 37 -1160 53 -97 14 -131 25 -132 46 -1 14 3 19
13 15 8 -3 14 1 14 10 0 9 -5 12 -12 8 -7 -4 10 17 37 45 54 57 404 363 391
343 -14 -23 11 -12 40 19 l29 31 110 -6 c61 -4 232 -13 380 -21z m-5625 -22
c0 -5 -60 -8 -132 -7 l-133 0 122 -3 122 -4 5 -52 c4 -29 8 -70 10 -92 2 -22
3 0 2 49 -5 168 12 50 23 -168 12 -211 8 -287 -10 -241 -6 15 -8 16 -8 4 -1
-9 -11 -19 -23 -22 -27 -7 -295 -23 -673 -41 -148 -7 -239 -14 -202 -15 91 -1
676 27 806 39 57 6 106 8 108 6 13 -12 -134 -23 -632 -46 l-420 -20 -30 32
c-16 17 -24 27 -16 23 11 -6 13 -4 8 9 -4 10 -7 31 -7 47 0 21 -4 28 -12 23
-8 -4 -10 -3 -5 2 5 5 14 9 20 9 5 0 12 6 15 14 3 8 0 11 -7 7 -17 -11 -13 0
6 15 15 12 16 12 8 -1 -5 -9 0 -8 13 4 26 23 30 44 5 25 -15 -11 -14 -9 1 9
11 12 21 20 24 17 7 -7 42 25 42 38 0 5 -7 4 -15 -3 -30 -25 -14 -3 22 31 34
31 36 31 13 4 -18 -21 -13 -19 18 10 39 36 61 73 27 45 -32 -26 -13 -2 27 35
41 38 42 39 13 5 -23 -27 -20 -25 18 10 47 44 67 80 25 44 -13 -10 -3 3 22 29
50 53 70 65 24 15 -16 -18 -7 -13 19 12 44 42 70 84 27 45 -11 -10 -20 -16
-20 -13 0 2 12 15 27 29 14 13 23 18 19 12 -4 -8 -1 -13 8 -13 9 0 15 6 13 13
-1 9 48 15 198 23 246 13 485 17 485 7z m6570 -6 c162 -9 214 -15 213 -24 -2
-7 4 -13 13 -13 8 0 12 5 9 10 -12 19 2 10 26 -17 22 -25 22 -26 2 -9 -43 36
-23 0 24 -44 38 -35 41 -37 18 -10 -23 27 -20 25 18 -10 45 -42 68 -72 27 -35
-43 39 -17 -3 27 -45 26 -25 35 -30 19 -12 -43 47 -27 39 19 -10 22 -23 32
-36 23 -29 -35 26 -17 -6 24 -44 24 -22 32 -28 19 -12 -36 40 -20 33 20 -10
18 -20 26 -31 17 -24 -10 7 -18 9 -18 4 0 -13 35 -45 42 -38 3 3 13 -5 24 -17
15 -18 16 -20 2 -9 -26 19 -22 -2 4 -25 12 -10 18 -13 14 -6 -10 18 -1 15 15
-5 12 -14 12 -16 0 -9 -9 6 -12 4 -9 -5 3 -8 10 -14 16 -14 5 0 14 -4 19 -9 5
-5 3 -6 -4 -2 -9 5 -13 -2 -13 -23 0 -16 -3 -37 -7 -47 -5 -13 -3 -15 8 -9 8
4 1 -6 -16 -23 l-30 -32 -420 20 c-498 23 -645 34 -632 46 2 2 51 0 108 -6
130 -12 715 -40 806 -39 37 1 -53 8 -202 15 -378 18 -646 34 -672 41 -13 3
-23 13 -24 22 0 12 -2 11 -8 -4 -18 -46 -22 30 -10 241 11 218 28 336 23 168
-1 -49 0 -71 2 -49 2 22 6 63 10 92 l5 52 122 4 122 3 -133 0 c-72 -1 -132 2
-132 7 0 10 215 7 470 -6z"/>
<path d="M4414 3171 c-18 -11 -35 -24 -38 -30 -7 -11 199 -462 217 -473 7 -4
19 -5 27 -2 8 4 24 8 35 11 17 4 18 3 5 -7 -13 -10 -13 -11 0 -7 10 2 14 15
13 38 l-1 34 14 -25 c7 -14 13 -21 14 -16 0 6 -48 113 -107 238 -69 149 -109
224 -115 216 -6 -10 -8 -8 -8 5 0 21 -12 22 -51 1 -22 -11 -29 -20 -24 -32 5
-13 3 -14 -6 -5 -15 15 -5 29 39 53 20 10 33 19 27 20 -5 0 -24 -9 -41 -19z"/>
<path d="M4760 2925 l0 -265 40 0 40 0 0 265 0 265 -40 0 -40 0 0 -265z"/>
<path d="M5172 3170 c44 -24 54 -38 39 -53 -9 -9 -11 -8 -6 5 5 12 -2 21 -24
32 -39 21 -51 20 -51 -1 0 -13 -2 -15 -8 -5 -6 8 -46 -67 -115 -216 -59 -125
-107 -232 -107 -238 1 -5 7 2 14 16 l14 25 -1 -34 c-1 -23 3 -36 13 -38 13 -4
13 -3 0 7 -13 10 -12 11 5 7 11 -3 27 -7 35 -11 8 -3 20 -2 27 2 6 4 59 110
118 236 86 186 104 231 94 243 -13 15 -63 43 -76 43 -4 -1 9 -10 29 -20z"/>
<path d="M4072 3077 c-18 -18 -32 -37 -32 -43 0 -5 81 -90 180 -189 196 -196
209 -203 257 -153 l27 29 -194 194 c-107 107 -197 195 -200 195 -4 0 -20 -15
-38 -33z"/>
<path d="M5290 2915 l-195 -195 28 -27 c51 -51 59 -46 258 153 134 134 180
186 176 199 -4 10 -12 13 -19 9 -7 -4 -10 -3 -5 1 7 8 -29 55 -42 55 -4 0 -94
-88 -201 -195z"/>
<path d="M3915 2327 c-64 -22 -105 -46 -156 -94 -93 -87 -135 -262 -89 -373
10 -25 24 -44 30 -42 6 1 9 -2 5 -8 -8 -13 13 -52 25 -45 5 3 12 0 16 -6 4 -8
3 -9 -4 -5 -7 4 -12 3 -12 -3 0 -5 28 -35 62 -65 75 -68 128 -87 242 -84 l81
1 -100 7 c-119 8 -154 21 -220 84 l-50 48 55 -46 c72 -61 135 -80 243 -73 45
2 93 8 107 11 20 6 19 4 -5 -8 -35 -17 -29 -21 10 -6 14 5 24 14 21 19 -3 5 9
18 27 30 17 11 43 28 57 37 22 15 12 6 -59 -54 -14 -11 -13 -12 4 -4 29 14
115 92 115 104 0 6 -7 5 -17 -3 -16 -11 -16 -11 -5 1 7 8 18 15 24 15 6 0 13
6 16 14 3 9 0 11 -9 6 -8 -5 -11 -4 -6 1 5 5 14 9 20 9 6 0 19 20 29 45 18 47
23 172 9 220 -4 14 -6 -18 -3 -70 2 -52 0 -106 -5 -119 -6 -16 -8 5 -6 65 3
57 -1 108 -10 141 -8 29 -10 50 -5 47 4 -3 8 -13 9 -22 0 -9 3 -12 5 -5 7 16
-25 75 -36 68 -5 -3 -12 0 -16 6 -4 8 -3 9 4 5 7 -4 12 -3 12 2 0 19 -112 114
-157 134 -59 27 -198 34 -258 15z"/>
<path d="M5465 2327 c-60 -20 -85 -35 -142 -90 -48 -45 -71 -79 -41 -61 7 4 8
3 4 -5 -4 -6 -11 -9 -16 -6 -11 7 -43 -52 -36 -68 2 -7 5 -4 5 5 1 9 5 19 9
22 5 3 3 -18 -5 -47 -9 -33 -13 -84 -10 -141 2 -60 0 -81 -6 -65 -5 13 -7 67
-5 119 3 52 1 84 -3 70 -14 -48 -9 -173 9 -220 10 -25 23 -45 29 -45 6 0 15
-4 20 -9 5 -5 2 -6 -6 -1 -9 5 -12 3 -9 -6 3 -8 10 -14 16 -14 6 0 17 -7 24
-15 11 -12 11 -12 -4 -1 -11 8 -18 9 -18 3 0 -12 86 -90 115 -104 17 -8 18 -7
4 4 -71 60 -81 69 -59 54 14 -9 40 -26 57 -37 18 -12 30 -25 27 -30 -3 -5 7
-14 21 -19 39 -15 45 -11 10 6 -24 12 -25 14 -5 8 14 -3 62 -9 107 -11 108 -7
171 12 243 73 l55 46 -50 -48 c-66 -63 -101 -76 -220 -84 l-100 -7 81 -1 c114
-3 167 16 242 84 34 30 62 60 62 65 0 6 -5 7 -12 3 -7 -4 -8 -3 -4 5 4 6 11 9
16 6 12 -7 33 32 25 45 -4 6 -1 9 5 8 6 -2 20 17 30 42 47 112 5 286 -91 375
-74 69 -145 98 -249 102 -51 2 -101 -2 -125 -10z"/>
<path d="M638 2155 c-51 -16 -169 -100 -176 -125 -3 -8 18 7 47 33 79 74 127
92 241 92 78 0 104 -4 147 -24 29 -13 57 -29 62 -35 6 -7 -17 2 -51 18 -56 28
-71 31 -158 31 -113 0 -162 -18 -239 -90 -27 -26 -53 -46 -58 -45 -4 1 -9 -4
-12 -11 -2 -8 1 -9 10 -4 8 5 11 4 6 -1 -5 -5 -14 -9 -20 -9 -6 0 -22 -27 -35
-60 -20 -49 -23 -73 -20 -135 5 -103 42 -181 119 -255 70 -67 143 -102 224
-110 l60 -5 -70 14 c-63 12 -155 48 -155 61 0 3 18 -4 40 -15 66 -34 134 -44
203 -30 82 16 130 42 201 109 33 31 56 49 51 41 -7 -13 -6 -13 7 -2 9 7 26 36
38 65 20 46 22 63 17 148 -5 98 -35 197 -56 185 -5 -4 -13 -1 -17 5 -4 8 -3 9
4 5 7 -4 12 -3 12 2 0 20 -104 105 -158 130 -71 32 -191 40 -264 17z"/>
<path d="M8745 2156 c-63 -20 -104 -45 -157 -93 -44 -42 -65 -75 -36 -57 7 4
8 3 4 -5 -4 -6 -12 -9 -17 -5 -21 12 -51 -87 -56 -185 -5 -85 -3 -102 17 -148
12 -29 29 -58 38 -65 13 -11 14 -11 7 2 -5 8 18 -10 51 -41 71 -67 119 -93
201 -109 69 -14 137 -4 203 30 22 11 40 18 40 15 0 -13 -92 -49 -155 -61 l-70
-14 60 5 c81 8 154 43 224 110 77 74 114 152 119 255 3 62 0 86 -20 135 -13
33 -29 60 -35 60 -6 0 -15 4 -20 9 -5 5 -2 6 6 1 9 -5 12 -4 10 4 -3 7 -8 12
-12 11 -5 -1 -31 19 -58 45 -77 72 -126 90 -239 90 -87 0 -102 -3 -158 -31
-34 -16 -57 -25 -51 -18 5 6 33 22 62 35 43 20 69 24 147 24 114 0 162 -18
241 -92 29 -26 50 -41 47 -33 -8 27 -127 109 -180 125 -62 18 -158 19 -213 1z"/>
<path d="M2740 1905 c-399 -23 -700 -43 -670 -44 78 -1 1462 77 1468 84 7 7 9
7 -798 -40z"/>
<path d="M6062 1945 c6 -7 1386 -85 1468 -84 30 1 -242 18 -605 39 -363 21
-707 41 -765 44 -57 4 -102 4 -98 1z"/>
</g>
</svg>
