<?xml version="1.0" standalone="no"?>
<!DOCTYPE svg PUBLIC "-//W3C//DTD SVG 20010904//EN"
 "http://www.w3.org/TR/2001/REC-SVG-20010904/DTD/svg10.dtd">
<svg version="1.0" xmlns="http://www.w3.org/2000/svg"
 width="252.000000pt" height="361.000000pt" viewBox="0 0 252.000000 361.000000"
 preserveAspectRatio="xMidYMid meet">
<metadata>
Created by potrace 1.15, written by Peter Selinger 2001-2017
</metadata>
<g transform="translate(0.000000,361.000000) scale(0.100000,-0.100000)"
fill="#000000" stroke="none">
<path d="M1270 3584 c-52 -44 -90 -85 -90 -97 0 -6 -17 6 -38 26 -31 30 -45
37 -78 37 -22 0 -56 -8 -76 -19 -21 -10 -48 -16 -62 -14 -21 4 -28 0 -36 -23
-6 -15 -10 -37 -9 -48 4 -60 0 -66 -61 -93 -60 -26 -60 -26 -60 -69 0 -37 -5
-48 -45 -86 -47 -45 -56 -78 -34 -121 10 -18 8 -23 -10 -35 -11 -8 -21 -20
-21 -26 0 -6 -10 -16 -22 -21 -13 -6 -24 -20 -26 -31 -2 -12 -12 -24 -23 -27
-12 -3 -19 -14 -19 -30 0 -13 -9 -36 -21 -51 -18 -23 -19 -30 -8 -64 18 -55
44 -105 68 -126 16 -15 18 -22 10 -32 -6 -8 -9 -23 -6 -34 4 -16 0 -20 -18
-20 -27 0 -44 -19 -63 -69 -26 -69 -26 -82 -3 -88 14 -3 21 -13 21 -29 0 -13
13 -48 29 -77 27 -50 28 -57 18 -101 -7 -31 -18 -52 -31 -59 -12 -5 -40 -31
-63 -56 -40 -44 -42 -51 -48 -122 -3 -40 -8 -99 -11 -130 -6 -55 -5 -57 26
-79 30 -21 30 -23 15 -46 -8 -13 -15 -39 -15 -59 0 -20 -7 -47 -16 -61 -16
-24 -15 -28 15 -90 34 -70 51 -82 128 -91 35 -5 44 -10 52 -34 9 -25 7 -29 -8
-29 -34 0 -41 -23 -35 -103 l7 -75 -44 -12 c-64 -16 -67 -18 -121 -53 -31 -19
-58 -47 -70 -72 l-21 -40 -38 45 c-22 25 -39 51 -39 58 0 27 -124 45 -159 23
-8 -5 -28 -5 -48 1 -46 13 -65 -3 -61 -51 2 -29 8 -37 26 -39 31 -5 42 -30 54
-134 11 -98 27 -128 66 -128 23 0 61 -34 62 -56 0 -5 11 -26 25 -44 14 -19 31
-53 37 -75 6 -22 17 -47 24 -55 7 -8 14 -26 16 -40 2 -15 11 -26 23 -28 11 -2
49 -34 85 -71 36 -36 96 -84 134 -106 37 -21 71 -45 74 -53 3 -9 -13 -31 -41
-56 -34 -30 -48 -51 -53 -78 -5 -33 -2 -41 33 -78 l39 -42 76 7 c72 7 77 9 88
36 7 16 21 39 32 51 11 13 17 31 14 43 -3 11 2 29 10 39 16 23 19 56 4 56 -21
0 -9 40 25 80 19 23 35 48 35 55 0 8 6 18 14 22 26 14 74 83 93 131 17 46 72
105 122 131 94 49 201 142 201 175 0 9 16 26 36 38 21 13 48 42 66 76 18 30
47 70 66 89 27 28 39 33 62 28 22 -5 34 1 62 27 20 18 84 61 144 95 60 35 126
78 148 97 21 19 57 48 80 63 22 15 56 40 74 55 18 15 42 28 52 28 13 0 20 7
20 20 0 12 10 25 24 31 13 6 29 22 35 35 6 13 19 24 29 24 10 0 49 32 87 70
l68 71 -6 56 c-5 47 -12 62 -41 92 -20 20 -36 46 -36 57 0 11 -13 33 -30 49
-23 22 -30 38 -30 66 0 28 -5 39 -19 44 -12 3 -22 19 -26 38 -12 59 -17 68
-41 77 -18 7 -24 17 -24 39 0 32 -23 47 -54 35 -9 -3 -16 -1 -16 4 0 6 -27 12
-62 14 -58 3 -63 5 -72 30 -13 36 -4 43 34 29 21 -7 38 -7 50 -1 19 10 50 78
50 110 0 13 7 20 18 20 10 0 27 7 38 15 10 8 28 15 40 15 11 0 25 5 31 11 7 7
16 -1 30 -28 31 -60 52 -56 141 30 70 68 80 74 110 70 69 -11 82 40 22 88 -43
35 -80 89 -80 117 0 10 13 22 30 29 35 13 40 45 13 75 -15 17 -15 20 5 48 39
53 26 90 -32 90 -17 0 -25 8 -32 33 -8 28 -14 32 -47 35 -33 3 -37 6 -37 32 0
65 -15 71 -114 45 l-59 -16 -43 46 c-27 28 -41 50 -38 60 14 36 -52 86 -71 55
-5 -8 -11 -7 -21 1 -7 6 -25 8 -38 5 -19 -5 -26 -1 -31 14 -16 51 -81 67 -125
32 -21 -17 -26 -17 -69 -4 -25 8 -55 23 -67 33 -28 26 -80 25 -96 -1 -17 -27
-32 -25 -56 5 -16 20 -19 36 -16 87 2 35 5 83 6 108 l3 45 -81 3 c-76 3 -84 1
-114 -24z m134 -51 c-15 -53 -11 -136 8 -176 l18 -38 -26 -23 c-41 -34 -44
-109 -10 -200 23 -60 24 -67 8 -53 -27 24 -38 21 -65 -18 -13 -19 -39 -45 -59
-58 -31 -22 -38 -23 -59 -11 -35 19 -46 18 -108 -20 -31 -18 -68 -36 -83 -40
-23 -5 -28 -12 -28 -36 0 -19 -7 -33 -21 -40 -18 -10 -27 -6 -67 27 -45 39
-56 52 -66 86 -4 13 -17 17 -56 17 -36 0 -57 6 -71 19 -20 18 -20 18 7 35 21
15 25 23 20 47 -3 16 -9 43 -12 59 -4 18 -2 30 4 30 16 0 74 91 75 119 2 27
34 51 68 51 27 0 59 57 59 105 0 37 3 41 38 53 89 32 97 30 160 -38 54 -57 59
-61 85 -51 22 9 27 17 27 45 0 19 -5 38 -10 41 -6 3 5 18 22 33 18 15 38 32
43 39 6 7 28 14 50 16 22 2 44 4 49 5 4 1 5 -10 0 -25z m195 -227 c7 -8 27
-18 44 -22 18 -3 45 -17 60 -30 16 -13 32 -24 37 -24 5 0 21 16 36 35 33 43
46 44 65 3 11 -27 21 -34 49 -36 19 -2 39 -8 45 -13 5 -5 17 -9 27 -9 12 0 18
-8 18 -23 0 -27 17 -47 41 -47 9 0 19 -10 23 -23 3 -12 18 -30 34 -39 31 -18
110 -22 130 -6 8 7 12 7 12 0 0 -6 -5 -14 -11 -18 -6 -3 -9 -14 -6 -24 4 -16
2 -16 -21 -4 -17 9 -45 11 -89 7 -43 -4 -72 -2 -88 7 -20 11 -27 11 -40 0 -9
-7 -14 -19 -11 -27 3 -7 -1 -13 -8 -13 -7 0 -19 -7 -26 -15 -10 -12 -9 -20 4
-40 22 -34 20 -50 -10 -70 -26 -17 -28 -37 -9 -87 5 -13 2 -18 -9 -18 -9 0
-29 -8 -44 -18 -15 -11 -47 -31 -71 -46 -34 -22 -50 -42 -77 -99 -55 -117 -83
-137 -104 -73 -6 19 -17 37 -25 40 -10 4 -13 14 -9 35 5 24 2 30 -17 36 -13 4
-40 17 -59 30 -19 13 -59 28 -88 35 -48 11 -52 14 -39 29 32 36 29 54 -23 116
-27 33 -50 63 -50 67 0 4 20 28 45 53 44 43 47 45 68 30 12 -8 30 -15 40 -15
24 0 20 30 -17 115 -27 64 -32 108 -16 149 12 31 48 52 63 37 19 -19 75 -13
89 9 15 24 22 25 37 6z m671 -281 c7 -8 22 -15 34 -15 16 0 24 -9 31 -32 8
-27 16 -34 43 -38 33 -5 33 -5 12 -22 -22 -20 -25 -40 -9 -70 9 -16 7 -23 -10
-34 -32 -23 -36 -74 -11 -125 12 -24 29 -52 37 -61 15 -17 10 -38 -8 -38 -6 0
-35 -27 -66 -60 -55 -60 -73 -71 -73 -47 0 8 -11 24 -25 37 -23 22 -29 23 -58
12 -19 -7 -43 -12 -56 -12 -12 0 -24 -6 -27 -13 -3 -9 -16 -12 -34 -9 -27 4
-32 0 -45 -32 -8 -19 -15 -45 -15 -56 0 -12 -4 -30 -10 -40 -9 -17 -14 -17
-71 -4 -68 16 -83 12 -77 -21 3 -15 -9 -40 -37 -78 -23 -31 -50 -74 -60 -96
-13 -29 -26 -43 -44 -47 -14 -3 -31 -7 -37 -9 -7 -2 -15 -26 -19 -54 -7 -49
-8 -50 -55 -66 -27 -9 -54 -23 -60 -31 -21 -24 -47 -16 -59 19 -7 17 -21 50
-33 72 -13 25 -26 79 -33 144 -12 99 -12 107 7 147 21 41 22 42 112 64 102 26
156 48 156 65 0 7 9 20 20 30 11 10 20 24 20 32 0 26 49 111 76 132 15 12 38
24 51 27 12 4 23 10 23 15 0 5 9 9 20 9 11 0 20 4 20 9 0 5 15 8 33 7 28 -1
32 2 35 27 2 18 -1 27 -11 27 -8 0 -20 13 -25 29 -9 25 -7 30 14 40 18 8 24
18 24 44 0 18 -5 38 -12 45 -38 38 150 75 221 43 39 -17 66 -6 65 28 -1 25 9
27 26 6z m-1560 -95 c9 -16 17 -18 60 -13 42 5 50 3 50 -11 0 -9 27 -43 61
-75 l61 -59 44 16 c40 15 44 19 44 49 0 24 5 33 16 33 23 0 85 30 112 53 l22
21 30 -23 c17 -12 34 -20 39 -17 4 3 30 -22 56 -56 50 -65 52 -89 6 -96 -51
-8 -4 -54 73 -71 32 -7 74 -24 93 -37 20 -13 42 -24 49 -24 9 0 14 -12 14 -35
0 -19 4 -35 9 -35 5 0 18 -18 29 -41 24 -47 29 -43 -92 -74 l-79 -20 -36 -60
c-35 -58 -39 -61 -110 -86 -41 -14 -90 -39 -110 -56 -20 -16 -55 -42 -78 -57
-26 -17 -54 -49 -72 -81 -29 -52 -72 -93 -129 -128 l-30 -17 -7 30 c-8 35 -41
58 -58 41 -11 -11 -41 33 -86 127 -11 23 -27 45 -36 48 -13 5 -14 17 -9 68 6
57 4 64 -25 103 -18 24 -28 49 -25 58 4 8 -1 26 -10 40 -13 19 -14 30 -6 45 6
11 16 18 21 14 13 -7 79 54 79 73 0 8 7 16 15 19 27 11 16 39 -31 84 -25 25
-55 64 -65 88 -18 40 -18 44 -1 77 9 19 25 37 35 41 10 3 20 19 24 35 7 34 37
40 53 9z m1172 -729 c15 -21 22 -23 61 -18 31 4 50 2 63 -8 10 -8 29 -15 40
-15 16 0 23 -8 28 -31 4 -19 13 -33 26 -36 14 -4 24 -19 31 -49 6 -24 17 -49
25 -55 8 -6 14 -22 14 -34 0 -13 14 -36 30 -52 17 -15 30 -36 30 -46 0 -24 48
-87 66 -87 10 0 14 -12 14 -37 0 -32 -9 -47 -54 -95 -30 -32 -62 -58 -71 -58
-9 0 -36 -20 -60 -44 -48 -47 -88 -53 -98 -14 -5 16 -11 19 -30 14 -23 -5 -25
-3 -30 44 -3 27 -3 65 0 84 6 37 -10 49 -32 27 -15 -15 -84 -15 -132 -2 -40
11 -42 14 -37 40 5 26 3 30 -25 36 -31 7 -52 28 -83 84 -15 27 -22 31 -62 31
-49 0 -76 7 -76 21 0 17 45 54 84 69 43 17 52 29 61 81 5 32 10 38 39 43 28 5
38 14 56 54 12 26 39 69 59 97 l36 50 5 -35 c3 -19 13 -46 22 -59z m-518 -18
c6 -66 13 -98 32 -130 13 -23 24 -48 24 -56 0 -8 11 -35 25 -61 l25 -47 -33
-29 c-25 -23 -42 -29 -75 -30 -23 0 -51 -6 -62 -12 -16 -10 -24 -10 -40 0 -37
23 -77 14 -121 -25 -43 -39 -82 -47 -141 -29 -24 7 -28 5 -28 -13 0 -14 -16
-31 -50 -53 -31 -21 -58 -49 -72 -76 -21 -39 -26 -43 -53 -37 -16 3 -39 14
-50 25 -13 12 -35 20 -57 20 -19 0 -49 7 -67 16 -30 15 -34 14 -71 -4 l-40
-19 0 32 c0 27 5 34 25 39 36 9 32 45 -9 88 -43 44 -51 71 -32 101 11 16 15
40 11 81 -3 46 0 60 14 74 10 9 41 38 69 65 l51 48 15 -23 c9 -12 16 -29 16
-36 0 -8 11 -27 25 -44 14 -16 25 -36 25 -43 0 -21 51 -56 72 -50 15 5 18 1
18 -24 0 -44 30 -49 77 -13 21 16 55 41 76 56 20 15 48 48 61 74 31 60 153
155 251 193 39 15 73 27 76 28 3 1 9 -38 13 -86z m236 -338 c17 -1 31 -13 45
-37 29 -52 45 -68 66 -68 15 0 19 -7 19 -34 0 -31 3 -34 35 -40 19 -4 47 -18
62 -32 l26 -24 19 20 c34 37 55 26 63 -31 7 -48 6 -53 -21 -74 -22 -18 -26
-26 -18 -35 9 -9 22 -8 55 3 37 13 45 13 47 2 2 -8 12 -17 23 -20 18 -6 18 -8
-7 -40 -14 -19 -36 -37 -47 -41 -12 -3 -31 -14 -42 -24 -69 -64 -105 -89 -232
-165 -78 -47 -151 -85 -161 -85 -11 0 -40 -18 -66 -41 -43 -38 -45 -39 -36
-14 14 36 13 65 -2 65 -7 0 -30 5 -50 11 -34 9 -38 13 -38 43 0 17 -7 41 -15
52 -8 10 -15 31 -15 46 0 16 -12 50 -27 77 l-28 49 48 44 c32 31 47 53 47 71
0 14 5 38 10 52 9 23 6 30 -19 54 -39 36 -48 74 -30 125 14 40 16 41 67 46 40
4 59 12 80 33 24 26 31 27 72 21 25 -4 56 -8 70 -9z m-865 -543 c6 -4 19 -25
30 -47 11 -22 41 -60 67 -85 26 -25 56 -67 67 -92 11 -27 28 -49 40 -53 11 -3
26 -18 33 -33 8 -16 36 -39 70 -58 32 -16 64 -39 72 -49 11 -15 25 -19 59 -17
58 2 69 -21 37 -73 -21 -34 -97 -95 -119 -95 -5 0 -39 -26 -75 -57 -45 -39
-66 -65 -66 -81 0 -31 -42 -95 -85 -127 -21 -17 -35 -36 -35 -49 0 -13 -11
-33 -24 -45 -33 -31 -61 -118 -45 -137 9 -11 9 -18 1 -26 -7 -7 -12 -20 -12
-30 0 -41 -29 -77 -71 -88 -37 -10 -44 -9 -65 11 -33 31 -30 53 12 85 44 34
68 78 59 111 -7 28 -52 72 -75 73 -8 0 -21 9 -28 20 -7 11 -21 20 -31 20 -20
0 -72 46 -114 102 -15 20 -38 39 -50 42 -15 4 -29 22 -44 61 -13 30 -23 60
-23 66 0 6 -10 25 -22 42 -13 17 -36 56 -53 86 -26 48 -35 56 -62 59 -28 3
-34 9 -42 38 -5 20 -7 42 -4 50 6 17 -15 102 -30 122 -5 7 -8 14 -6 15 15 10
63 27 78 27 19 0 89 -70 110 -108 27 -51 90 -35 126 32 11 20 22 36 26 36 3 0
19 10 35 23 30 23 87 47 116 47 9 0 28 14 43 32 24 28 26 38 23 95 l-3 63 35
0 c19 0 40 -4 45 -8z"/>
</g>
</svg>
